{"title":"Jingle All the Way 1996 DVDrip English Klam","uid":6847050,"size":1575989876,"categoryP":"video","categoryS":"movies","magnet":"?xt=urn:btih:dc8af07306bc4fdfb27b097d4be5847220eb5e3d&amp;dn=Jingle+All+the+Way+1996+DVDrip+English+Klam&amp;tr=udp%3A%2F%2Ftracker.openbittorrent.com%3A80&amp;tr=udp%3A%2F%2Fopen.demonii.com%3A1337&amp;tr=udp%3A%2F%2Ftracker.coppersurfer.tk%3A6969&amp;tr=udp%3A%2F%2Fexodus.desync.com%3A6969","seeders":4,"leechers":0,"uploader":"Klambake","files":-1,"time":1322391084,"description":"With: Arnold Schwarzenegger, Sinbad and Phil Hartman\n\nHoward Langston is een sympathieke zakenman die van zijn familie houdt, maar niet genoeg tijd aan ze kan besteden. Met kerst staat bovenaan het verlanglijstje van z'n zoon de speelgoedpop Turbo Man, om die in handen te krijgen moet Howard het gevecht aangaan met de dolgedraaide Myron. Dit betekent oorlog en Howard heeft besloten te winnen, wat er ook gebeurt.\n\nA harried father decides to dream the impossible dream, to get that year's hot toy for his son just before Christmas Day. \n\n------------------------ Dutch Friends ------------------------\n---------------------------------------------------------------\n-- Bezoek ook eens mijn vrienden op: http://www.Film-Test.nl --\n----- voor mijn Nederlandse Sync. ondertitels ---- en meer ----\n------- http://www.Film-Test.nl ---- voor Films en meer -------\n---------------------------------------------------------------\n\nGeneral:\n\nComplete name                    : Jingle All the Way\\Jingle All the Way.avi\nFormat                           : AVI\nFormat/Info                      : Audio Video Interleave\nFile size                        : 1.47 GiB\nDuration                         : 1h 25mn\nOverall bit rate                 : 2 446 Kbps\n\nVideo:\n\nFormat                           : MPEG-4 Visual\nFormat profile                   : Simple@L3\nFormat settings, BVOP            : No\nFormat settings, QPel            : No\nFormat settings, GMC             : No warppoints\nFormat settings, Matrix          : Default (H.263)\nCodec ID                         : XVID\nCodec ID/Hint                    : XviD\nDuration                         : 1h 25mn\nBit rate                         : 2 051 Kbps\nWidth                            : 640 pixels\nHeight                           : 480 pixels\nDisplay aspect ratio             : 4:3\nFrame rate                       : 25.000 fps\nColor space                      : YUV\nChroma subsampling               : 4:2:0\nBit depth                        : 8 bits\nScan type                        : Progressive\nCompression mode                 : Lossy\nBits/(Pixel*Frame)               : 0.267\nStream size                      : 1.23 GiB (84%)\nWriting library                  : XviD 1.1.2 (UTC 2006-11-01)\n\nAudio:\n\nFormat                           : AC-3\nFormat/Info                      : Audio Coding 3\nMode extension                   : CM (complete main)\nCodec ID                         : 2000\nDuration                         : 1h 25mn\nBit rate mode                    : Constant\nBit rate                         : 384 Kbps\nChannel(s)                       : 5 channels\nChannel positions                : Front: L C R, Side: L R\nSampling rate                    : 48.0 KHz\nBit depth                        : 16 bits\nCompression mode                 : Lossy\nStream size                      : 236 MiB (16%)\nAlignment                        : Aligned on interleaves\nInterleave, duration             : 32 ms (0.80 video frame)\n","torrent":{"xt":"urn:btih:dc8af07306bc4fdfb27b097d4be5847220eb5e3d","amp;dn":"Jingle+All+the+Way+1996+DVDrip+English+Klam","amp;tr":["udp%3A%2F%2Ftracker.openbittorrent.com%3A80","udp%3A%2F%2Fopen.demonii.com%3A1337","udp%3A%2F%2Ftracker.coppersurfer.tk%3A6969","udp%3A%2F%2Fexodus.desync.com%3A6969"],"infoHash":"dc8af07306bc4fdfb27b097d4be5847220eb5e3d","infoHashBuffer":{"type":"Buffer","data":[220,138,240,115,6,188,79,223,178,123,9,125,75,229,132,114,32,235,94,61]},"announce":[],"urlList":[]}}